<svg width="96" height="57" viewBox="0 0 96 57" fill="none" xmlns="http://www.w3.org/2000/svg">
<path opacity="0.5" d="M52.0157 5.35129L39.286 52.8829C39.2212 53.0986 38.9623 53.1634 38.8113 53.0123L30.2888 44.4899L36.6753 20.6701C36.74 20.4544 36.5458 20.2602 36.3301 20.3249L12.5103 26.7114L4.03104 18.2321C3.88001 18.081 3.94474 17.8221 4.1605 17.7574L51.6705 5.00608C51.8863 4.96292 52.0804 5.15711 52.0157 5.35129Z" fill="#00B37E"/>
<path opacity="0.5" d="M30.2885 44.49L27.009 56.7882C26.9442 57.004 26.6853 57.0687 26.5343 56.9177L0.0823113 30.4873C-0.0687196 30.3362 -0.00399244 30.0773 0.211766 30.0126L12.51 26.7115L30.2885 44.49Z" fill="#00B37E"/>
<path d="M36.6752 20.67L30.2887 44.4897L12.5103 26.7112L36.33 20.3247C36.5457 20.26 36.7399 20.4542 36.6752 20.67Z" fill="#00B37E"/>
<path d="M67.622 50.6314C67.622 50.4246 67.5759 50.2334 67.4838 50.0576C67.3968 49.8767 67.2152 49.7139 66.9389 49.5691C66.6677 49.4192 66.2584 49.29 65.711 49.1814C65.2505 49.0832 64.8335 48.9669 64.46 48.8325C64.0916 48.6981 63.7769 48.5353 63.516 48.344C63.2602 48.1527 63.0632 47.9279 62.925 47.6694C62.7869 47.411 62.7178 47.1086 62.7178 46.7622C62.7178 46.4314 62.7894 46.1187 62.9327 45.824C63.0811 45.5294 63.2883 45.2683 63.5544 45.0409C63.8255 44.8134 64.1504 44.6351 64.529 44.5059C64.9077 44.3766 65.3298 44.312 65.7954 44.312C66.4605 44.312 67.0285 44.4309 67.4992 44.6687C67.9699 44.9065 68.3306 45.2244 68.5813 45.6224C68.832 46.0153 68.9574 46.4521 68.9574 46.9328H67.5376C67.5376 46.7002 67.4685 46.4753 67.3303 46.2582C67.1973 46.0359 67.0003 45.8524 66.7394 45.7077C66.4836 45.563 66.1689 45.4906 65.7954 45.4906C65.4014 45.4906 65.0816 45.5526 64.836 45.6767C64.5956 45.7956 64.419 45.9481 64.3065 46.1342C64.199 46.3203 64.1453 46.5167 64.1453 46.7235C64.1453 46.8785 64.1709 47.0181 64.2221 47.1422C64.2783 47.2611 64.3756 47.3722 64.5137 47.4756C64.6518 47.5738 64.8463 47.6668 65.097 47.7547C65.3477 47.8426 65.6675 47.9305 66.0563 48.0183C66.7368 48.1734 67.2971 48.3595 67.7371 48.5766C68.1771 48.7937 68.5046 49.0599 68.7195 49.3753C68.9344 49.6906 69.0418 50.0731 69.0418 50.5228C69.0418 50.8898 68.9651 51.2258 68.8116 51.5308C68.6632 51.8358 68.4457 52.0994 68.1592 52.3217C67.8778 52.5388 67.5401 52.7094 67.1461 52.8335C66.7573 52.9524 66.3198 53.0118 65.8338 53.0118C65.1021 53.0118 64.483 52.88 63.9765 52.6164C63.4699 52.3527 63.0862 52.0116 62.8253 51.5929C62.5643 51.1742 62.4338 50.7322 62.4338 50.267H63.8613C63.8818 50.6598 63.9944 50.9726 64.199 51.2052C64.4037 51.4326 64.6544 51.5954 64.9512 51.6937C65.2479 51.7867 65.5421 51.8332 65.8338 51.8332C66.2226 51.8332 66.5475 51.7815 66.8085 51.6782C67.0745 51.5748 67.2766 51.4326 67.4148 51.2517C67.5529 51.0708 67.622 50.864 67.622 50.6314Z" fill="white"/>
<path d="M72.3266 40.9468V52.8567H70.9068V40.9468H72.3266ZM71.9889 48.344L71.398 48.3207C71.4031 47.747 71.4875 47.2171 71.6512 46.7312C71.815 46.2401 72.0452 45.8137 72.342 45.4518C72.6387 45.09 72.9917 44.8108 73.4011 44.6144C73.8155 44.4128 74.2734 44.312 74.7748 44.312C75.1842 44.312 75.5526 44.3689 75.88 44.4826C76.2075 44.5911 76.4863 44.7669 76.7166 45.0099C76.9519 45.2528 77.131 45.5681 77.2538 45.9558C77.3766 46.3383 77.438 46.8062 77.438 47.3593V52.8567H76.0105V47.3438C76.0105 46.9044 75.9465 46.5529 75.8186 46.2892C75.6907 46.0204 75.504 45.8266 75.2584 45.7077C75.0128 45.5836 74.7109 45.5216 74.3527 45.5216C73.9997 45.5216 73.6774 45.5966 73.3857 45.7465C73.0992 45.8964 72.851 46.1031 72.6413 46.3668C72.4366 46.6304 72.2754 46.9328 72.1578 47.274C72.0452 47.61 71.9889 47.9667 71.9889 48.344Z" fill="white"/>
<path d="M79.1878 48.755V48.5766C79.1878 47.9718 79.2748 47.411 79.4488 46.894C79.6227 46.3719 79.8734 45.9196 80.2009 45.5371C80.5284 45.1494 80.9249 44.8496 81.3905 44.6377C81.8561 44.4206 82.378 44.312 82.9561 44.312C83.5394 44.312 84.0639 44.4206 84.5295 44.6377C85.0002 44.8496 85.3993 45.1494 85.7267 45.5371C86.0593 45.9196 86.3126 46.3719 86.4865 46.894C86.6605 47.411 86.7475 47.9718 86.7475 48.5766V48.755C86.7475 49.3598 86.6605 49.9206 86.4865 50.4375C86.3126 50.9545 86.0593 51.4068 85.7267 51.7945C85.3993 52.177 85.0027 52.4768 84.5371 52.6939C84.0767 52.9058 83.5548 53.0118 82.9715 53.0118C82.3882 53.0118 81.8638 52.9058 81.3982 52.6939C80.9326 52.4768 80.5335 52.177 80.2009 51.7945C79.8734 51.4068 79.6227 50.9545 79.4488 50.4375C79.2748 49.9206 79.1878 49.3598 79.1878 48.755ZM80.6077 48.5766V48.755C80.6077 49.1737 80.6563 49.5691 80.7535 49.9413C80.8507 50.3083 80.9965 50.634 81.1909 50.9183C81.3905 51.2026 81.6386 51.4274 81.9354 51.5929C82.2322 51.7531 82.5775 51.8332 82.9715 51.8332C83.3603 51.8332 83.7006 51.7531 83.9922 51.5929C84.289 51.4274 84.5346 51.2026 84.729 50.9183C84.9234 50.634 85.0693 50.3083 85.1665 49.9413C85.2688 49.5691 85.32 49.1737 85.32 48.755V48.5766C85.32 48.1631 85.2688 47.7728 85.1665 47.4058C85.0693 47.0336 84.9209 46.7054 84.7213 46.4211C84.5269 46.1316 84.2813 45.9041 83.9846 45.7387C83.6929 45.5733 83.3501 45.4906 82.9561 45.4906C82.5673 45.4906 82.2245 45.5733 81.9277 45.7387C81.6361 45.9041 81.3905 46.1316 81.1909 46.4211C80.9965 46.7054 80.8507 47.0336 80.7535 47.4058C80.6563 47.7728 80.6077 48.1631 80.6077 48.5766Z" fill="white"/>
<path d="M89.9478 46.0799V56.0823H88.5203V44.4671H89.8251L89.9478 46.0799ZM95.5427 48.5921V48.755C95.5427 49.3649 95.4711 49.931 95.3279 50.453C95.1846 50.97 94.9748 51.4197 94.6985 51.8022C94.4273 52.1847 94.0922 52.482 93.6931 52.6939C93.294 52.9058 92.8361 53.0118 92.3193 53.0118C91.7923 53.0118 91.3267 52.9239 90.9225 52.7482C90.5183 52.5724 90.1755 52.3166 89.8941 51.9806C89.6127 51.6446 89.3876 51.2414 89.2187 50.771C89.055 50.3006 88.9425 49.7707 88.8811 49.1814V48.313C88.9425 47.6927 89.0576 47.137 89.2264 46.6459C89.3953 46.1548 89.6178 45.7361 89.8941 45.3898C90.1755 45.0383 90.5158 44.7721 90.9149 44.5911C91.314 44.4051 91.7744 44.312 92.2963 44.312C92.8182 44.312 93.2813 44.4154 93.6855 44.6222C94.0897 44.8238 94.4299 45.1132 94.7062 45.4906C94.9825 45.8679 95.1897 46.3203 95.3279 46.8475C95.4711 47.3696 95.5427 47.9511 95.5427 48.5921ZM94.1152 48.755V48.5921C94.1152 48.1734 94.0718 47.7806 93.9848 47.4135C93.8978 47.0414 93.7622 46.7157 93.578 46.4366C93.3989 46.1523 93.1687 45.93 92.8873 45.7697C92.6059 45.6043 92.2707 45.5216 91.8819 45.5216C91.5237 45.5216 91.2116 45.5836 90.9456 45.7077C90.6846 45.8318 90.4621 45.9998 90.2779 46.2117C90.0937 46.4185 89.9427 46.6563 89.8251 46.9251C89.7125 47.1887 89.6281 47.4627 89.5718 47.747V49.7552C89.6741 50.117 89.8174 50.4582 90.0016 50.7787C90.1858 51.094 90.4314 51.3499 90.7383 51.5463C91.0453 51.7376 91.4316 51.8332 91.8972 51.8332C92.281 51.8332 92.611 51.7531 92.8873 51.5929C93.1687 51.4274 93.3989 51.2026 93.578 50.9183C93.7622 50.634 93.8978 50.3083 93.9848 49.9413C94.0718 49.5691 94.1152 49.1737 94.1152 48.755Z" fill="white"/>
<path d="M77.9275 31.5037V35H66.9755V31.5037H77.9275ZM68.4248 13.2453V35H63.9424V13.2453H68.4248ZM84.9799 13.2453V35H80.4975V13.2453H84.9799ZM93.6459 22.5389V26.0352H83.7547V22.5389H93.6459ZM94.6918 13.2453V16.7565H83.7547V13.2453H94.6918Z" fill="white"/>
</svg>
